<?xml version="1.0" encoding="UTF-8" standalone="no"?>
<!-- Created with Inkscape (http://www.inkscape.org/) -->

<svg
   xmlns:dc="http://purl.org/dc/elements/1.1/"
   xmlns:cc="http://creativecommons.org/ns#"
   xmlns:rdf="http://www.w3.org/1999/02/22-rdf-syntax-ns#"
   xmlns:svg="http://www.w3.org/2000/svg"
   xmlns="http://www.w3.org/2000/svg"
   xmlns:sodipodi="http://sodipodi.sourceforge.net/DTD/sodipodi-0.dtd"
   xmlns:inkscape="http://www.inkscape.org/namespaces/inkscape"
   width="3199.3601"
   height="2000"
   id="svg6225"
   version="1.1"
   inkscape:version="0.48.4 r9939"
   sodipodi:docname="2.svg">
  <defs
     id="defs6227" />
  <sodipodi:namedview
     id="base"
     pagecolor="#ffffff"
     bordercolor="#666666"
     borderopacity="1.0"
     inkscape:pageopacity="0.0"
     inkscape:pageshadow="2"
     inkscape:zoom="0.2985"
     inkscape:cx="1599.6801"
     inkscape:cy="1000"
     inkscape:document-units="px"
     inkscape:current-layer="layer1"
     showgrid="false"
     width="3200.36px"
     inkscape:window-width="1366"
     inkscape:window-height="705"
     inkscape:window-x="-8"
     inkscape:window-y="-8"
     inkscape:window-maximized="1" />
  <metadata
     id="metadata6230">
    <rdf:RDF>
      <cc:Work
         rdf:about="">
        <dc:format>image/svg+xml</dc:format>
        <dc:type
           rdf:resource="http://purl.org/dc/dcmitype/StillImage" />
        <dc:title />
      </cc:Work>
    </rdf:RDF>
  </metadata>
  <g
     inkscape:label="Layer 1"
     inkscape:groupmode="layer"
     id="layer1"
     transform="translate(0,947.63782)">
    <path
       style="fill:none;stroke:#000000;stroke-width:1px;stroke-linecap:butt;stroke-linejoin:miter;stroke-opacity:1"
       d="m 218.44503,-89.77237 5.71428,-37.1428 25.71429,0 20,48.5714 131.42857,-2.8572 40,-37.1428 140,-2.8572 20,-14.2857 242.85714,-2.8571 22.85714,20 20,-25.7143 125.71425,0 -2.8571,8.5714 -48.57146,0 25.7143,17.1429 545.71426,2.8571 57.1429,42.8572 8.5714,14.2857 42.8572,20 62.8571,25.7143 14.2857,-14.2857 300,108.5714 -60,208.5714 -340,-240 -40,-25.7143 -48.5714,0 22.8571,60 -20,22.8572 45.7143,88.5714 -65.7143,57.1429 -82.8571,-177.1429 c 0,0 5.7143,42.8571 -14.2857,0 -20,-42.8571 -20,-42.8571 -20,-42.8571 l 8.5714,60 c 0,0 -5.7143,5.7142 -8.5714,8.5714 -2.8572,2.8571 -2.8572,2.8571 -2.8572,2.8571 l -85.7143,0 -14.2857,-17.1428 0,-57.1429 2.8572,48.5714 c 0,0 -120.0001,0 -17.1429,0 l -17.1428,-8.5714 0,-40"
       id="path4091"
       inkscape:connector-curvature="0" />
    <path
       style="fill:none;stroke:#000000;stroke-width:1px;stroke-linecap:butt;stroke-linejoin:miter;stroke-opacity:1"
       d="M 864.15931,273.08483 C 1004.33,192.32213 1072.6317,44.74853 1072.7307,44.51333 c -48.3996,93.794 -114.51076,172.8284 -208.57139,228.5715 z"
       id="path4099"
       inkscape:connector-curvature="0"
       sodipodi:nodetypes="ccc" />
    <path
       style="fill:none;stroke:#000000;stroke-width:1px;stroke-linecap:butt;stroke-linejoin:miter;stroke-opacity:1"
       d="m 1075.5878,53.08483 -94.28566,2.8571 -28.5714,22.8571 -51.42857,-14.2857 -300,-45.7143 0,0 -5.71429,-25.7142001 -374.28571,-8.5714999 5.71428,-14.2857 60,5.7143 -2.85714,11.4286"
       id="path4101"
       inkscape:connector-curvature="0" />
    <path
       style="fill:none;stroke:#000000;stroke-width:1px;stroke-linecap:butt;stroke-linejoin:miter;stroke-opacity:1"
       d="m 1258.445,30.22763 c -102.0475,264.7044 -300.27246,367.2346 -302.85716,368.5715"
       id="path4105"
       inkscape:connector-curvature="0"
       sodipodi:nodetypes="cc" />
    <path
       style="fill:none;stroke:#000000;stroke-width:1px;stroke-linecap:butt;stroke-linejoin:miter;stroke-opacity:1"
       d="m 864.15931,270.22763 c 88.57143,134.2858 88.57143,134.2858 88.57143,134.2858"
       id="path4107"
       inkscape:connector-curvature="0" />
    <path
       style="fill:none;stroke:#000000;stroke-width:1px;stroke-linecap:butt;stroke-linejoin:miter;stroke-opacity:1"
       d="m 221.30217,-81.20097 -34.28572,5.7143 -2.85714,45.7143 42.85714,0"
       id="path4113"
       inkscape:connector-curvature="0" />
    <path
       style="fill:none;stroke:#000000;stroke-width:1px;stroke-linecap:butt;stroke-linejoin:miter;stroke-opacity:1"
       d="m 184.15931,-64.05807 c 231.42857,-2.8571 231.42857,-5.7143 231.42857,-2.8571 0,2.8571 0,0 0,0 l 34.28572,-37.1429 1105.7143,5.7143"
       id="path4115"
       inkscape:connector-curvature="0" />
    <path
       style="fill:none;stroke:#000000;stroke-width:1px;stroke-linecap:butt;stroke-linejoin:miter;stroke-opacity:1"
       d="m 449.8736,-78.34377 1142.8571,2.8571"
       id="path4121"
       inkscape:connector-curvature="0" />
    <path
       style="fill:none;stroke:#000000;stroke-width:1px;stroke-linecap:butt;stroke-linejoin:miter;stroke-opacity:1"
       d="m 432.73074,-66.91517 20,-11.4286"
       id="path4123"
       inkscape:connector-curvature="0" />
    <path
       style="fill:none;stroke:#000000;stroke-width:1px;stroke-linecap:butt;stroke-linejoin:miter;stroke-opacity:1"
       d="m 187.01645,-49.77237 894.28565,11.4286 -2.8571,-22.8572 -651.42855,-2.8571 25.71429,-17.1429"
       id="path4125"
       inkscape:connector-curvature="0" />
    <path
       style="fill:none;stroke:#000000;stroke-width:1px;stroke-linecap:butt;stroke-linejoin:miter;stroke-opacity:1"
       d="m 1269.8736,-75.48667 22.8571,-25.7143 -2.8571,31.4286 25.7143,-31.4286 0,28.5715 34.2857,-34.2857 0,31.4285 25.7143,-28.5714 0,28.5714 20,-34.2857 0,34.2857 34.2857,-25.7143 0,22.8572 25.7143,-25.7143 14.2857,11.4286 -17.1429,14.2857 40,-25.7143 -2.8571,25.7143 22.8571,-20 5.7143,20 22.8572,-17.1429 0,14.2857 22.8571,-17.1428"
       id="path4149"
       inkscape:connector-curvature="0" />
    <path
       style="fill:none;stroke:#000000;stroke-width:1px;stroke-linecap:butt;stroke-linejoin:miter;stroke-opacity:1"
       d="m 1241.3022,-101.20097 31.4285,22.8572 -697.14282,0 0,-28.5714 z"
       id="path4151"
       inkscape:connector-curvature="0" />
    <path
       style="fill:none;stroke:#000000;stroke-width:1px;stroke-linecap:butt;stroke-linejoin:miter;stroke-opacity:1"
       d="m 1075.5878,-38.34377 0,25.7143 20,0 2.8572,14.2856999 -34.2857,51.4286001"
       id="path4156"
       inkscape:connector-curvature="0" />
    <path
       style="fill:none;stroke:#000000;stroke-width:1px;stroke-linecap:butt;stroke-linejoin:miter;stroke-opacity:1"
       d="m 1035.5878,-78.34377 5.7143,17.1428 111.4286,-2.8571 0,31.4286 -77.1429,14.2857"
       id="path4158"
       inkscape:connector-curvature="0" />
    <path
       style="fill:none;stroke:#000000;stroke-width:1px;stroke-linecap:butt;stroke-linejoin:miter;stroke-opacity:1"
       d="m 1081.3021,-49.77237 71.4286,0 -2.8571,5.7143 z"
       id="path4160"
       inkscape:connector-curvature="0" />
    <path
       style="fill:none;stroke:#000000;stroke-width:1px;stroke-linecap:butt;stroke-linejoin:miter;stroke-opacity:1"
       d="m 978.44504,-64.05807 -34.2857,8.5714 -11.4286,2.8572 48.5714,14.2857"
       id="path4162"
       inkscape:connector-curvature="0" />
    <path
       style="fill:none;stroke:#000000;stroke-width:1px;stroke-linecap:butt;stroke-linejoin:miter;stroke-opacity:1"
       d="m 1175.5878,124.51333 c -55.0718,115.1146 -145.2526,189.2688 -245.7142,251.4287"
       id="path4164"
       inkscape:connector-curvature="0"
       sodipodi:nodetypes="cc" />
    <path
       style="fill:none;stroke:#000000;stroke-width:1px;stroke-linecap:butt;stroke-linejoin:miter;stroke-opacity:1"
       d="m 1144.1593,21.65623 -45.7143,82.8571 71.4286,34.2857"
       id="path4170"
       inkscape:connector-curvature="0" />
    <path
       style="fill:none;stroke:#000000;stroke-width:1px;stroke-linecap:butt;stroke-linejoin:miter;stroke-opacity:1"
       d="m 1141.3021,24.51333 122.8572,8.5715"
       id="path4176"
       inkscape:connector-curvature="0" />
    <path
       style="fill:none;stroke:#000000;stroke-width:1px;stroke-linecap:butt;stroke-linejoin:miter;stroke-opacity:1"
       d="m 1115.5878,21.65623 c -43.7365,135.8055 -123.93746,226.0304 -228.57135,285.7143"
       id="path4178"
       inkscape:connector-curvature="0"
       sodipodi:nodetypes="cc" />
    <path
       style="fill:none;stroke:#000000;stroke-width:1px;stroke-linecap:butt;stroke-linejoin:miter;stroke-opacity:1"
       d="m 1072.7307,78.79903 71.4286,105.7143 -100,-57.1428 68.5714,105.7143 -100,-62.8572 65.7143,91.4286 -99.99996,-65.7143 54.28566,100 -88.57136,-74.2857 42.8571,114.2857 -77.14284,-80 48.57144,97.143 -82.85716,-80.0001 57.14286,91.4286"
       id="path4180"
       inkscape:connector-curvature="0" />
    <path
       style="fill:none;stroke:#000000;stroke-width:1px;stroke-linecap:butt;stroke-linejoin:miter;stroke-opacity:1"
       d="m 1075.5878,78.79903 31.4286,14.2858 20,-42.8572"
       id="path4182"
       inkscape:connector-curvature="0" />
    <path
       style="fill:none;stroke:#000000;stroke-width:1px;stroke-linecap:butt;stroke-linejoin:miter;stroke-opacity:1"
       d="m 1118.445,70.22763 -28.5714,-34.2857 40,5.7143"
       id="path4184"
       inkscape:connector-curvature="0" />
    <path
       style="fill:none;stroke:#000000;stroke-width:1px;stroke-linecap:butt;stroke-linejoin:miter;stroke-opacity:1"
       d="m 1155.5878,21.65623 42.8572,-20.0000001 60,2.8571 -2.8571,28.5715001"
       id="path4186"
       inkscape:connector-curvature="0" />
    <path
       style="fill:none;stroke:#000000;stroke-width:1px;stroke-linecap:butt;stroke-linejoin:miter;stroke-opacity:1"
       d="m 1181.3021,10.22763 -31.4285,0 -31.4286,-5.7143001 28.5714,-14.2857 94.2858,0 2.8571,14.2857"
       id="path4188"
       inkscape:connector-curvature="0" />
    <path
       style="fill:none;stroke:#000000;stroke-width:1px;stroke-linecap:butt;stroke-linejoin:miter;stroke-opacity:1"
       d="m 1152.7307,-35.48667 25.7143,8.5715 105.7143,0 20,-20 42.8571,0 0,-20 -37.1428,5.7142 0,-17.1428 -45.7143,0"
       id="path4190"
       inkscape:connector-curvature="0" />
    <path
       transform="translate(672.73074,-2170.7059)"
       sodipodi:type="arc"
       style="fill:#000000"
       id="path4208"
       sodipodi:cx="571.42859"
       sodipodi:cy="2186.6479"
       sodipodi:rx="8.5714283"
       sodipodi:ry="8.5714283"
       d="m 580.00002,2186.6479 c 0,4.7339 -3.83756,8.5715 -8.57143,8.5715 -4.73387,0 -8.57143,-3.8376 -8.57143,-8.5715 0,-4.7338 3.83756,-8.5714 8.57143,-8.5714 4.73387,0 8.57143,3.8376 8.57143,8.5714 z" />
    <path
       transform="translate(672.73074,-2170.7059)"
       sodipodi:type="arc"
       style="fill:#000000"
       id="path4210"
       sodipodi:cx="615.71429"
       sodipodi:cy="2190.9336"
       sodipodi:rx="7.1428571"
       sodipodi:ry="7.1428571"
       d="m 622.85715,2190.9336 c 0,3.9449 -3.19796,7.1429 -7.14286,7.1429 -3.94489,0 -7.14285,-3.198 -7.14285,-7.1429 0,-3.9449 3.19796,-7.1429 7.14285,-7.1429 3.9449,0 7.14286,3.198 7.14286,7.1429 z" />
    <path
       style="fill:none;stroke:#000000;stroke-width:1px;stroke-linecap:butt;stroke-linejoin:miter;stroke-opacity:1"
       d="m 1292.7307,30.22763 -51.4285,-5.7143 0,-20.0000001"
       id="path4212"
       inkscape:connector-curvature="0" />
    <path
       style="fill:none;stroke:#000000;stroke-width:1px;stroke-linecap:butt;stroke-linejoin:miter;stroke-opacity:1"
       d="m 1269.8736,381.65633 60,-25.7143"
       id="path4216"
       inkscape:connector-curvature="0" />
    <path
       style="fill:none;stroke:#000000;stroke-width:1px;stroke-linecap:butt;stroke-linejoin:miter;stroke-opacity:1"
       d="m 1238.445,13.08483 22.8572,-31.4286 37.1428,14.2856999 80,-17.1428999 8.5714,25.7142999 11.4286,0 -5.7143,8.5715001 -17.1428,2.8571 -80,14.2857 z"
       id="path4220"
       inkscape:connector-curvature="0" />
    <path
       style="fill:none;stroke:#000000;stroke-width:1px;stroke-linecap:butt;stroke-linejoin:miter;stroke-opacity:1"
       d="m 1387.0164,4.5133299 -25.7142,5.7143001 22.8571,8.5714"
       id="path4222"
       inkscape:connector-curvature="0" />
    <path
       style="fill:none;stroke:#000000;stroke-width:1px;stroke-linecap:butt;stroke-linejoin:miter;stroke-opacity:1"
       d="m 1352.7307,44.51333 c 3.8095,30.4762 -3.8095,45.7143 -22.8571,45.7143"
       id="path4232"
       inkscape:connector-curvature="0"
       sodipodi:nodetypes="cc" />
    <path
       style="fill:none;stroke:#000000;stroke-width:1px;stroke-linecap:butt;stroke-linejoin:miter;stroke-opacity:1"
       d="m 1332.7307,87.37053 c 14.121,-8.9369 32.7042,17.8234 40,-45.7143"
       id="path4234"
       inkscape:connector-curvature="0"
       sodipodi:nodetypes="cc" />
    <path
       style="fill:none;stroke:#000000;stroke-width:1px;stroke-linecap:butt;stroke-linejoin:miter;stroke-opacity:1"
       d="M 1349.8736,44.51333 z"
       id="path4236"
       inkscape:connector-curvature="0" />
    <path
       style="fill:none;stroke:#000000;stroke-width:1px;stroke-linecap:butt;stroke-linejoin:miter;stroke-opacity:1"
       d="m 1349.8736,44.51333 -31.4286,-5.7143 14.2857,-40.0000001 28.5715,-2.8571 0,14.2857001 -11.4286,5.7143 0,11.4286 57.1428,-5.7143 -8.5714,-22.8572001 22.8572,11.4286001 -5.7143,25.7143 -28.5715,-2.8571 -5.7142,17.1428 -11.4286,-5.7143"
       id="path4238"
       inkscape:connector-curvature="0" />
    <path
       style="fill:none;stroke:#000000;stroke-width:1px;stroke-linecap:butt;stroke-linejoin:miter;stroke-opacity:1"
       d="m 1287.0164,13.08483 25.7143,0"
       id="path4240"
       inkscape:connector-curvature="0" />
    <path
       style="fill:none;stroke:#000000;stroke-width:1px;stroke-linecap:butt;stroke-linejoin:miter;stroke-opacity:1"
       d="m 1327.0164,-69.77237 0,28.5714"
       id="path4242"
       inkscape:connector-curvature="0" />
    <rect
       style="fill:#ffffff"
       id="rect4246"
       width="17.142857"
       height="28.571428"
       x="1338.4451"
       y="-64.057968"
       ry="2.8571429" />
    <rect
       style="fill:#ffffff"
       id="rect4248"
       width="17.142857"
       height="5.7142859"
       x="1338.4451"
       y="-69.772324"
       ry="2.8571429" />
    <rect
       style="fill:#ffffff"
       id="rect4250"
       width="177.14285"
       height="80"
       x="1215.5879"
       y="318.79922"
       ry="2.8571429" />
    <path
       style="fill:none;stroke:#000000;stroke-width:1px;stroke-linecap:butt;stroke-linejoin:miter;stroke-opacity:1"
       d="m 1355.5879,-21.20097 -8.5715,-17.1428 17.1429,0 14.2857,22.8571"
       id="path4252"
       inkscape:connector-curvature="0" />
    <path
       style="fill:none;stroke:#000000;stroke-width:1px;stroke-linecap:butt;stroke-linejoin:miter;stroke-opacity:1"
       d="m 589.8736,-6.9151701 42.85714,-8.5714999 451.42856,2.8572"
       id="path4254"
       inkscape:connector-curvature="0" />
    <path
       style="fill:none;stroke:#000000;stroke-width:1px;stroke-linecap:butt;stroke-linejoin:miter;stroke-opacity:1"
       d="m 215.58788,-29.77237 374.28572,5.7143 -2.85715,-28.5714 5.71429,48.5713999"
       id="path4262"
       inkscape:connector-curvature="0" />
    <path
       style="fill:none;stroke:#000000;stroke-width:1px;stroke-linecap:butt;stroke-linejoin:miter;stroke-opacity:1"
       d="m 229.8736,-29.77237 14.28571,40 17.14286,-40"
       id="path4264"
       inkscape:connector-curvature="0" />
    <rect
       style="fill:#ffffff"
       id="rect4266"
       width="462.85715"
       height="31.428572"
       x="607.01642"
       y="-26.915142"
       ry="2.8571429" />
    <rect
       style="fill:#ffffff"
       id="rect5049"
       width="308.57144"
       height="28.571428"
       x="278.44504"
       y="-15.486675"
       ry="2.8571429" />
    <rect
       style="fill:#000000"
       id="rect5051"
       width="368.57144"
       height="5.7142859"
       x="235.58789"
       y="-4.0579648"
       ry="2.8571429" />
    <path
       style="fill:none;stroke:#000000;stroke-width:1px;stroke-linecap:butt;stroke-linejoin:miter;stroke-opacity:1"
       d="m 1644.1593,-35.48667 0,0 -42.8571,77.1429"
       id="path5053"
       inkscape:connector-curvature="0" />
    <path
       style="fill:none;stroke:#000000;stroke-width:1px;stroke-linecap:butt;stroke-linejoin:miter;stroke-opacity:1"
       d="m 1404.1593,55.94193 128.5714,-31.4286 -114.2857,5.7143"
       id="path5055"
       inkscape:connector-curvature="0" />
    <rect
       style="fill:#000000"
       id="rect5065"
       width="314.28571"
       height="5.7142859"
       x="1258.4451"
       y="-89.772324"
       ry="2.8571429" />
    <path
       style="fill:none;stroke:#000000;stroke-width:1px;stroke-linecap:butt;stroke-linejoin:miter;stroke-opacity:1"
       d="m 1298.445,24.51333 2.8572,62.8572 8.5714,20 77.1428,0 20,-20 -8.5714,-45.7143"
       id="path5067"
       inkscape:connector-curvature="0" />
    <path
       style="fill:#800000"
       d="m 1781.6826,162.77023 c -95.6634,-67.5184 -174.4013,-123.2286 -174.9731,-123.8004 -1.0216,-1.0216 35.0396,-67.2064 38.6495,-70.9351 1.0155,-1.049 13.8883,3.1296 28.606,9.2857 14.7178,6.1561 28.34,11.1929 30.2715,11.1929 1.9315,0 5.8389,-2.5714 8.6832,-5.7143 2.8442,-3.1428 6.3747,-5.7142 7.8455,-5.7142 4.4346,0 289.0895,103.3265 291.9355,105.9694 2.3926,2.2217 -50.8623,195.1194 -55.3252,200.3966 -0.9676,1.1441 -80.0294,-53.1621 -175.6929,-120.6806 z"
       id="path5069"
       inkscape:connector-curvature="0" />
    <path
       style="fill:#800000"
       d="m 1485.8805,190.65623 c -14.7837,-31.8214 -33.3125,-71.3572 -41.175,-87.8572 -14.0186,-29.4186 -14.3289,-29.8062 -16.0132,-20 l -1.7175,10 -9.1577,-17.7504 -9.1577,-17.7505 10.7016,-2.877 c 5.8859,-1.5824 32.5242,-8.1297 59.1963,-14.5497 40.9202,-9.8493 48.9531,-11.0426 51.4286,-7.6393 1.6136,2.2182 6.7612,15.1054 11.4391,28.6381 l 8.5054,24.605 -9.8535,10.1661 -9.8534,10.1662 22.0624,44.2337 c 12.1343,24.3285 22.0624,44.7119 22.0624,45.2963 0,1.2867 -59.0911,53.1758 -60.5563,53.1758 -0.5677,0 -13.1279,-26.0357 -27.9115,-57.8571 z"
       id="path5071"
       inkscape:connector-curvature="0" />
    <path
       style="fill:#800000"
       d="m 926.52068,69.63793 c -12.94803,-3.7699 -90.62954,-17.0907 -172.62556,-29.6019 -96.67881,-14.7514 -149.90294,-24.0387 -151.41436,-26.4208 -3.34447,-5.2711001 -2.9486,-10.8162001 0.77218,-10.8162001 1.7576,0 2.53537,-2.50469997 1.73188,-5.5773 -0.80217,-3.0675 0.0122,-6.1802 1.80962,-6.9172 1.79747,-0.7369999 -0.11764,-1.4415999 -4.25579,-1.5655999 -8.23618,-0.2469 -10.94028,-5.8375 -11.0085,-22.7596 l -0.039,-9.6769 86.42857,1.7993 c 47.53571,0.9896 156.17857,2.6287 241.42857,3.6426 l 155.00001,1.8433 0,10.7962 c 0,5.9636 -1.5987,11.4413 -3.5715,12.2373 -1.9643,0.7926 2.4463,1.5426 9.8013,1.6667 19.5543,0.3298 19.374,7.0457999 -1.0142,37.7791 l -16.3834,24.6965 -42.2733,2.095 -42.27316,2.095 -13.2537,11.0657 c -7.2895,6.0861 -13.7181,10.9323 -14.2857,10.7694 -0.5676,-0.163 -11.62593,-3.3807 -24.57395,-7.1506 z"
       id="path5073"
       inkscape:connector-curvature="0" />
    <path
       style="fill:none;stroke:#000000;stroke-width:1px;stroke-linecap:butt;stroke-linejoin:miter;stroke-opacity:1"
       d="m 215.58788,-81.20097 8.57143,-48.5714"
       id="path5075"
       inkscape:connector-curvature="0" />
    <path
       style="fill:none;stroke:#000000;stroke-width:1px;stroke-linecap:butt;stroke-linejoin:miter;stroke-opacity:1"
       d="m 1244.1593,1.6562299 20,-2.8572"
       id="path5077"
       inkscape:connector-curvature="0" />
    <path
       style="fill:none;stroke:#000000;stroke-width:1px;stroke-linecap:butt;stroke-linejoin:miter;stroke-opacity:1"
       d="m 1244.1593,7.3705299 128.5714,31.4285001 11.4286,-8.5714"
       id="path5079"
       inkscape:connector-curvature="0" />
    <path
       style="fill:#241f1c"
       d="m 944.62544,388.41983 c -4.081,-6.1668 -7.42002,-11.8182 -7.42002,-12.5586 0,-0.7404 13.81572,-10.7323 30.70152,-22.2041 44.33516,-30.1205 81.16256,-60.287 112.09496,-91.8208 14.8952,-15.1848 28.8238,-27.6087 30.9524,-27.6087 2.1286,0 3.3358,-1.603 2.6827,-3.5623 -0.6531,-1.9593 6.1562,-13.2093 15.1318,-25 8.9755,-11.7907 23.5456,-34.2862 32.3779,-49.99 15.8943,-28.26 20.6773,-40.473 10.8463,-27.6953 l -5.0852,6.6096 -31.9941,-14.892 c -29.3475,-13.6601 -36.4936,-19.4947 -29.3124,-23.933 1.4749,-0.9115 10.6979,-17.0037 20.4956,-35.7603 l 17.8139,-34.103 11.6473,1.305 c 6.406,0.7178 30.9108,2.6761 54.4551,4.3519 23.5442,1.6757 43.1086,3.3477 43.4764,3.7155 0.3678,0.3679 -4.8624,12.9502 -11.6227,27.9608 -62.5731,138.9377 -155.0662,249.0946 -273.66996,325.9339 l -16.1514,10.4639 -7.4201,-11.2125 0,0 z"
       id="path5085"
       inkscape:connector-curvature="0" />
    <path
       style="fill:#241f1c"
       d="m 188.63399,-69.96517 c 0,-2.6262 4.7241,-4.7104 13.57143,-5.9876 12.52574,-1.8081 26.07015,-6.6753 19.13342,-6.8756 -2.01,-0.058 -1.63157,-7.2033 1.1395,-21.5154 l 4.14892,-21.4286 10.59101,0 c 10.55553,0 10.62439,0.079 20.55555,23.5714 l 9.96454,23.5715 67.54388,-0.3241 67.54389,-0.3241 19.63451,-18.5222 19.63452,-18.5222 70.02857,-1.5735 c 68.55129,-1.5404 70.26269,-1.7243 81.12655,-8.7178 l 11.098,-7.1443 119.17363,-1.3774 119.17359,-1.3773 11.28058,9.6557 c 6.20431,5.3107 12.36188,9.6056 13.68351,9.5443 1.32163,-0.061 6.62229,-5.847 11.77923,-12.8571 l 9.37626,-12.7457 59.90946,0 c 38.0349,0 59.90946,1.0432 59.90946,2.8571 0,1.6807 -9.99996,2.8571 -24.28576,2.8571 -13.3571,0 -24.2834,0.9643 -24.2806,2.1429 0,1.1786 5.8434,5.8313 12.9789,10.3394 l 12.9738,8.1965 272.76056,1.5173 272.7605,1.5172 9.1014,6.7148 9.1014,6.7148 -27.4599,0 c -19.3647,0 -27.8459,-1.0529 -28.7694,-3.5714 -1.0476,-2.8572 -2.0666,-2.8572 -5.0952,0 -4.8585,4.5834 -23.2977,4.6308 -27.857,0.072 -2.5814,-2.5814 -4.8094,-2.6821 -8.4895,-0.3838 -2.7443,1.7138 -16.2122,3.269 -29.9287,3.456 -23.9821,0.3268 -24.9427,0.095 -25.0342,-6.0448 l -0.095,-6.3846 -5.3629,6.4285 c -5.9121,7.0869 -13.0545,8.3919 -15.6374,2.8572 -1.3333,-2.8572 -2,-2.8572 -3.3333,0 -2.4653,5.2828 -21.1905,4.6516 -21.1905,-0.7143 0,-5.4964 -4.0161,-5.4889 -8.5848,0.016 -2.9728,3.582 -9.8435,4.0452 -41.0641,2.7684 -72.7441,-2.9748 -667.28791,-7.0131 -759.78402,-5.1605 l -93.71864,1.877 -17.70994,17.831 -17.70994,17.831 -112.14285,1.6221 c -95.36257,1.3794 -112.14286,1.0193 -112.14286,-2.4064 z"
       id="path5087"
       inkscape:connector-curvature="0" />
    <path
       style="fill:#241f1c"
       d="m 401.49113,-28.78127 c -58.14285,-1.0528 -130.46428,-2.0922 -160.71428,-2.3098 l -55,-0.3956 0,-8.8024 0,-8.8024 57.85714,1.6341 c 31.82143,0.8987 121.5,2.4004 199.28571,3.337 77.78572,0.9367 141.56915,1.9124 141.74092,2.1684 0.17171,0.2559 1.16057,4.001 2.19731,8.3225 l 1.88492,7.8571 -40.76872,-0.5473 c -22.4228,-0.301 -88.34014,-1.4087 -146.483,-2.4616 z"
       id="path5089"
       inkscape:connector-curvature="0" />
    <path
       style="fill:#241f1c"
       d="m 327.9197,-2.1994701 c 50.67858,-0.4372 133.60715,-0.4372 184.28572,0 50.67857,0.4371 9.21428,0.7948 -92.14286,0.7948 -101.35714,0 -142.82143,-0.3577 -92.14286,-0.7948 z"
       id="path5093"
       inkscape:connector-curvature="0" />
    <path
       style="fill:#008000"
       d="m 613.51198,-65.72507 c -173.46487,-1.4501 -176.38001,-1.5677 -166.79079,-6.7307 9.37716,-5.0488 21.11442,-5.1609 299.37063,-2.8572 268.88208,2.2261 289.67738,2.7445 290.54178,7.2424 1.034,5.3809 -35.6671,5.5844 -423.12162,2.3455 l 0,0 z"
       id="path5097"
       inkscape:connector-curvature="0" />
    <path
       style="fill:#241c1c"
       d="m 978.63404,-41.50457 c -1.5715,-0.5474 -10.5715,-3.2012 -20,-5.8973 l -17.14291,-4.902 14.28571,-3.822 c 9.463,-2.5317 32.2653,-3.8406 67.54456,-3.8771 l 53.2588,-0.055 1.1674,10 1.1675,10 -48.712,-0.2256 c -26.7916,-0.124 -49.99766,-0.6734 -51.56906,-1.2209 z"
       id="path5099"
       inkscape:connector-curvature="0" />
    <path
       style="fill:#008000"
       d="m 529.34828,-67.91327 c -56.23337,-0.5836 -77.85715,-1.7193 -77.85715,-4.0889 0,-3.8916 550.96887,-0.8255 569.99997,3.172 10.6035,2.2274 -308.58713,2.822 -492.14282,0.9169 z"
       id="path5101"
       inkscape:connector-curvature="0" />
    <path
       style="fill:#008000"
       d="m 1021.4911,-42.97687 c -46.42436,-1.6221 -76.26666,-6.0526 -71.67766,-10.6415 3.4193,-3.4194 122.99456,-5.749 125.20536,-2.4394 2.7595,4.1313 2.7936,16.1586 0.044,15.4387 -1.1786,-0.3085 -25.2857,-1.3695 -53.5715,-2.3578 z"
       id="path5103"
       inkscape:connector-curvature="0" />
    <path
       style="fill:#ff0000"
       d="m 1136.4911,6.4669299 c -10.5277,-1.5948 -9.8961,-4.4944 2.2398,-10.2815 8.1625,-3.8925 18.8364,-4.8149 55.7143,-4.8149 42.478,0 45.6174,0.3637 45.6174,5.2851 0,4.783 -1.9871,5.1577 -20.9085,3.94340003 -15.7427,-1.0103 -23.1195,-0.1984 -29.8581,3.28629997 -8.5576,4.4252 -32.8081,5.6108 -52.8049,2.5816 z"
       id="path5105"
       inkscape:connector-curvature="0" />
    <path
       style="fill:#ff2a2a"
       d="m 577.20542,-90.05807 0,-10 246.42857,0.01 c 135.53575,0 285.87771,0.8513 334.09341,1.8855 84.8943,1.8211 87.8778,2.078 94.4044,8.1298 3.7068,3.4371 8.6148,6.9872 10.9066,7.889 2.2919,0.9017 -151.083,1.7411 -340.83298,1.8651 l -345,0.2256 0,-10 z"
       id="path5107"
       inkscape:connector-curvature="0" />
    <path
       style="fill:#ff8080"
       d="m 1165.7768,-32.65967 c -9.5306,-3.4266 -10.0412,-4.3068 -10.8774,-18.7525 l -0.8774,-15.1572 -55.1651,2.0367 c -49.8542,1.8406 -55.3397,1.5814 -56.9797,-2.6923 -0.9981,-2.601 -1.8147,-5.2667 -1.8147,-5.9239 0,-0.6572 55.9286,-1.1949 124.2857,-1.1949 116.428,0 124.2915,0.3161 124.3767,5 0.087,4.7619 0.2716,4.7619 3.8863,0 2.0876,-2.75 6.5467,-5 9.9092,-5 4.6164,0 6.1136,1.7492 6.1136,7.1428 0,6.0318 1.3333,7.1429 8.5714,7.1429 6.6667,0 8.5714,1.2698 8.5714,5.7143 0,4.8291 -1.9047,5.7143 -12.2966,5.7143 -10.3024,0 -13.8686,1.6218 -21.9891,10 l -9.6924,10 -53.0109,-0.2174 c -34.8713,-0.143 -56.4329,-1.4477 -63.011,-3.8128 z"
       id="path5109"
       inkscape:connector-curvature="0" />
    <path
       style="fill:#ff8080"
       d="m 1100.0625,-48.37297 c 0,-2.0203 9.1967,-3.1137 26.1905,-3.1137 14.4048,0 25.6548,0.488 25,1.0845 -0.6548,0.5965 -12.4405,1.9976 -26.1905,3.1136 -17.3761,1.4104 -25,1.0797 -25,-1.0844 z"
       id="path5111"
       inkscape:connector-curvature="0" />
    <path
       style="fill:#008000"
       d="m 1080.0625,-55.77237 c 0,-3.3103 3.7392,-4.2903 16.4286,-4.306 9.0357,-0.011 25.1071,-0.84 35.7143,-1.8417 18.3806,-1.736 19.2857,-1.5339 19.2857,4.306 0,5.9383 -1.1021,6.1274 -35.7143,6.1274 -29.8413,0 -35.7143,-0.7047 -35.7143,-4.2857 z"
       id="path5115"
       inkscape:connector-curvature="0" />
    <path
       style="fill:#00ffff"
       d="m 1133.2254,3.2938299 c -2.8858,-4.6693 15.1011,-8.8182 39.6943,-9.1559 45.9758,-0.6314 64.2857,0.1481 64.2857,2.7369 0,1.456 -10.6071,3.33610003 -23.5714,4.178 -12.9643,0.842 -35.9578,2.3412 -51.0965,3.3316 -17.4499,1.1416 -28.1792,0.7424 -29.3121,-1.0906 z"
       id="path5117"
       inkscape:connector-curvature="0" />
    <path
       style="fill:#00ffff"
       d="m 1305.7768,20.91853 c -12.0553,-4.0207 -12.2516,-4.9883 -1.4285,-7.0415 8.828,-1.6748 6.8776,-1.9729 -8.5715,-1.3103 -11,0.4718 -23.2075,0.018 -27.1278,-1.0088 -7.5253,-1.9706001 -11.6715,-11.41520007 -5.2245,-11.90080007 2.0795,-0.1566 0.8312,-1.12090003 -2.7741,-2.14290003 -5.8864,-1.6685 -6.1474,-2.4149 -2.5588,-7.3185 3.917,-5.3521999 4.3633,-5.3307999 22.5161,1.0777 l 18.5199,6.538 35.6835,-7.6077 c 19.6259,-4.1842999 37.7202,-6.8261999 40.2096,-5.8708999 4.7208,1.8116 9.1605,14.1135999 6.5928,18.2681999 -0.8146,1.318 -5.3539,2.9648 -10.0874,3.6595 -7.5769,1.112 -8.6064,0.4239 -8.6064,-5.75299997 0,-6.80960003 -0.4414,-6.95800003 -15,-5.04320003 -17.3097,2.2766 -17.4756,2.4018 -22.0193,16.6205001 -3.4326,10.7416 -8.169,12.8208 -20.1236,8.8337 z"
       id="path5119"
       inkscape:connector-curvature="0" />
    <path
       style="fill:#00ffff"
       d="m 1354.8069,-27.33537 c -4.333,-9.5099 -4.2584,-9.8656 2.0699,-9.8656 2.9621,0 7.4621,3.1691 10,7.0424 6.0407,9.2192 5.8601,10.1005 -2.0699,10.1005 -4.3902,0 -7.8223,-2.4976 -10,-7.2773 z"
       id="path5121"
       inkscape:connector-curvature="0" />
    <path
       style="fill:#00ffff"
       d="m 1373.0628,11.60203 c -1.0972,-1.7752001 0.289,-3.1053001 3.2597,-3.1277001 2.8427,-0.021 8.3829,-0.8392 12.3115,-1.8173 4.9904,-1.2423 6.2819,-0.861 4.2857,1.2654 -4.4239,4.7128001 -17.6982,7.1725001 -19.8569,3.6796001 z"
       id="path5123"
       inkscape:connector-curvature="0" />
    <path
       style="fill:#000080"
       d="m 1270.0626,20.76173 c -3.1429,-0.7559 -7,-2.7103 -8.5715,-4.343 -1.9611,-2.0376 -0.6171,-2.4108 4.2857,-1.1902 3.9286,0.978 8.75,1.7958 10.7143,1.8172 1.9643,0.022 3.5715,1.3248 3.5715,2.8962 0,2.9931 -0.7194,3.0521 -10,0.8198 z"
       id="path5127"
       inkscape:connector-curvature="0" />
    <path
       style="fill:#000080"
       d="m 1330.0536,12.37983 c 2.4625,-5.8937001 4.7577,-10.9264001 5.1003,-11.1838001 0.3426,-0.25729997 6.0872,-1.16529997 12.7658,-2.01769997 9.7005,-1.23810003 12.1429,-0.66470003 12.1429,2.85069997 0,6.8849 -12.7542,16.9896001 -24.1404,19.1257001 l -10.346,1.9409 4.4774,-10.7158 z"
       id="path5129"
       inkscape:connector-curvature="0" />
    <path
       style="fill:#000080"
       d="m 1353.6576,63.18393 1.4034,-19.6152 -11.0706,-1.9657 c -17.6361,-3.1315 -21.0707,-4.6294 -21.0707,-9.189 0,-2.7471 1.7951,-3.7484 5,-2.7889 2.75,0.8232 13.4701,3.5852 23.8225,6.1378 l 18.8225,4.641 -2.2715,14.3694 c -2.2466,14.2119 -8.9645,28.0257 -13.6293,28.0257 -1.3254,0 -1.7782,-8.8268 -1.0063,-19.6151 z"
       id="path5131"
       inkscape:connector-curvature="0" />
    <path
       style="fill:#000080"
       d="m 1351.4911,31.58993 c -15.814,-4.2085 -17.5639,-5.2734 -11.7861,-7.1723 4.4391,-1.459 7.5384,-1.0114 8.9634,1.2943 1.6826,2.7225 8.4492,2.8781 29.7416,0.6836 15.1599,-1.5624 28.198,-3.4753 28.9737,-4.2509 0.7756,-0.7756 0.1203,-4.8028 -1.4562,-8.9493 -2.132,-5.6076001 -1.9695,-7.5279001 0.6343,-7.4954001 8.3938,0.1049 11.4853,5.0915001 9.7575,15.7386001 -0.9497,5.852 -2.2925,11.2058 -2.984,11.8973 -0.6915,0.6915 -8.1393,0 -16.5507,-1.5429 -12.1614,-2.2267 -16.2173,-1.9715 -19.8042,1.2458 -2.4808,2.2254 -5.0523,3.9217 -5.7142,3.7697 -0.662,-0.1519 -9.5608,-2.5003 -19.7751,-5.2185 z"
       id="path5137"
       inkscape:connector-curvature="0" />
    <path
       style="fill:#916f6f"
       d="m 945.63634,386.85753 c -3.46408,-5.605 -5.17103,-11.1748 -3.79321,-12.3772 1.37781,-1.2024 16.64801,-12.2518 33.93371,-24.554 44.95586,-31.9954 64.83546,-48.2976 102.52296,-84.074 34.4389,-32.6925 56.171,-61.1409 84.6557,-110.8186 15.4082,-26.8721 18.447,-36.9186 8.4229,-27.8469 -5.7088,5.1663 -6.4102,4.9868 -34.5498,-8.8429 -15.7976,-7.764 -29.2971,-15.0391 -29.999,-16.1671 -0.7019,-1.1279 7.1062,-17.1243 17.3513,-35.5474 10.2451,-18.4232 19.0233,-34.684 19.5071,-36.1352 0.8832,-2.6497 88.2728,2.825 101.4814,6.3575 6.5336,1.7474 6.14,2.8446 -19.0668,53.1515 -60.9964,121.7341 -135.6335,210.5072 -237.92436,282.9865 -37.4823,26.5584 -35.1655,25.8032 -42.5419,13.8678 z"
       id="path5143"
       inkscape:connector-curvature="0" />
    <path
       style="fill:#008000"
       d="m 1190.0626,26.52343 c -32.1615,-1.7063 -33.0484,-2.8709 -10.4385,-13.7064 18.7961,-9.0077001 21.6661,-9.5826001 40.1185,-8.0356001 18.6971,1.5675 19.6758,1.9922 16.5256,7.1709001 -2.8106,4.6204 -2.265,6.3926 3.3966,11.0328 l 6.7451,5.5282 -19.6022,-0.5402 c -10.7813,-0.2971 -27.3166,-0.9495 -36.7452,-1.4497 z"
       id="path5145"
       inkscape:connector-curvature="0" />
    <path
       style="fill:#008000"
       d="m 1155.1169,6.5334299 c 2.7799,-0.7245 6.6371,-0.6768 8.5714,0.1058 1.9344,0.7827 -0.3401,1.3754 -5.0543,1.3171 -4.7143,-0.058 -6.297,-0.6985 -3.5171,-1.4229 z"
       id="path5149"
       inkscape:connector-curvature="0" />
    <path
       style="fill:#008000"
       d="m 1172.9197,22.90063 c -4.875,-2.0081 -3.2619,-3.4962 10.9812,-10.1308 13.577,-6.3243001 19.5803,-7.5377001 32.1396,-6.4962001 17.5719,1.4572 16.8739,1.0423 19.3888,11.5254001 l 1.885,7.8572 -29.3402,-0.2008 c -16.137,-0.1105 -31.9116,-1.2601 -35.0544,-2.5548 z"
       id="path5153"
       inkscape:connector-curvature="0" />
    <path
       style="fill:#008000"
       d="m 1140.0625,0.22652993 c 7.0929,-3.97000003 47.5841,-6.41060003 66.5402,-4.01080003 l 17.7456,2.2466 -21.4286,1.79490003 c -32.6872,2.73799997 -67.7732,2.72089997 -62.8572,-0.031 z"
       id="path5155"
       inkscape:connector-curvature="0" />
    <path
       style="fill:#d45500;stroke:#000000;stroke-width:1px;stroke-linecap:butt;stroke-linejoin:miter;stroke-opacity:1"
       d="m 1238.445,-26.91517 8.5714,34.2856999 20,-39.9999999"
       id="path5171"
       inkscape:connector-curvature="0" />
    <path
       style="fill:#ff6600"
       d="m 1929.9572,263.25873 c -26.3348,-17.1257 -126.2171,-86.8248 -250.4739,-174.7837 l -70.5792,-49.9617 15.7986,-30.0000001 c 8.6892,-16.5 17.6153,-31.8694999 19.8357,-34.1543999 3.524,-3.6264 7.67,-2.9008 32.6218,5.7097 23.8237,8.2213 29.4201,9.2671 33.6007,6.2791 2.7587,-1.9718 6.5835,-4.3421 8.4994,-5.2673 1.9159,-0.9253 31.4873,8.2495 65.7143,20.3884999 56.9189,20.1870001 224.1783,81.4040001 225.758,82.6275001 2.2004,1.7043 -47.6891,182.4548 -52.9591,191.8717 -1.7063,3.0491 -8.0195,0.1645 -27.8163,-12.7094 l 0,0 z"
       id="path5192"
       inkscape:connector-curvature="0" />
    <path
       style="fill:#803300"
       d="m 1929.88,260.99343 c -43.8871,-29.3082 -310.0258,-215.285 -316.6559,-221.2781 -2.9083,-2.6289 29.1848,-62.4724 34.6798,-64.6669 1.9556,-0.781 15.2174,2.1573 29.4707,6.5295 22.5463,6.9162 27.1464,7.5043 35.3883,4.524 8.2132,-2.9699 12.6541,-2.427 33.3865,4.0817999 33.768,10.60130003 257.7022,92.5314001 260.5767,95.3364001 2.2475,2.1932 -10.9412,56.5259 -29.8553,122.9932 -14.0257,49.2884 -19.9378,65.7143 -23.6523,65.7143 -1.9366,0 -12.4389,-5.9554 -23.3385,-13.2342 z"
       id="path5194"
       inkscape:connector-curvature="0" />
    <path
       style="fill:#803300"
       d="m 942.48539,72.84093 c -2.95077,-2.9507 -62.71049,-13.8753 -172.42283,-31.5204 -134.96885,-21.707 -163.8805,-26.9829 -165.9165,-30.2772 -0.83388,-1.3493001 -0.3079,-6.8291001 1.16884,-12.1774001 2.41821,-8.7581 2.00678,-10.0332999 -4.14082,-12.8342999 -4.25542,-1.9389 -6.84049,-5.5539 -6.86482,-9.5999 -0.0215,-3.5694 -0.81909,-9.4011 -1.77251,-12.9593 l -1.7335,-6.4696 56.77251,1.6092 c 31.22488,0.8851 139.52819,2.7664 240.67403,4.1806 101.14585,1.4142 184.46911,3.139 185.16281,3.8327 0.6938,0.6938 0.1366,5.581 -1.2382,10.8604 -2.4668,9.4735 -2.3475,9.6366 9.1229,12.4734 9.3134,2.3032999 11.435,4.0061999 10.6791,8.5713999 -1.1003,6.6453 -25.0165,46.0573001 -29.7084,48.9570001 -1.7548,1.0845 -21.6278,2.9718 -44.1623,4.194 l -40.97186,2.2222 -12.4013,10.1619 c -11.4291,9.3653 -18.7639,12.2585 -22.24715,8.7753 z"
       id="path5196"
       inkscape:connector-curvature="0" />
    <path
       style="fill:#803300"
       d="m 1508.7453,234.44583 c -3.2359,-6.343 -16.5994,-34.3798 -29.6965,-62.304 -33.8602,-72.1928 -45.4268,-95.057 -48.0875,-95.057 -1.28,0 -2.3273,1.2857 -2.3273,2.8571 0,1.5714 -1.2596,2.8571 -2.7991,2.8571 -2.7768,0 -15.5902,-22.563 -13.8191,-24.3341 3.2428,-3.2429 113.6792,-28.1287 115.7293,-26.0785 0.8661,0.866 5.8432,12.8846 11.0603,26.7079 l 9.4856,25.1333 -9.9264,10.2207 -9.9264,10.2208 22.1024,45.2324 22.1023,45.2325 -11.7094,10.2611 c -6.4402,5.6436 -19.4934,17.0836 -29.0071,25.4222 l -17.2976,15.1612 -5.8835,-11.5327 0,0 z"
       id="path5200"
       inkscape:connector-curvature="0" />
    <path
       style="fill:none;stroke:#000000;stroke-width:1px;stroke-linecap:butt;stroke-linejoin:miter;stroke-opacity:1"
       d="m 1269.8736,18.79903 425.7142,-488.57136"
       id="path5221"
       inkscape:connector-curvature="0"
       sodipodi:nodetypes="cc" />
    <path
       style="fill:none;stroke:#000000;stroke-width:1px;stroke-linecap:butt;stroke-linejoin:miter;stroke-opacity:1"
       d="m 1487.0164,-92.62947 274.2857,-359.99996"
       id="path5223"
       inkscape:connector-curvature="0"
       sodipodi:nodetypes="cc" />
    <path
       style="fill:none;stroke:#000000;stroke-width:1px;stroke-linecap:butt;stroke-linejoin:miter;stroke-opacity:1"
       d="m 1049.8736,193.08483 637.1428,-688.57146"
       id="path5225"
       inkscape:connector-curvature="0"
       sodipodi:nodetypes="cc" />
    <flowRoot
       transform="translate(49.615162,-2164.0057)"
       xml:space="preserve"
       id="flowRoot5227"
       style="font-size:40px;font-style:normal;font-weight:normal;line-height:125%;letter-spacing:0px;word-spacing:0px;fill:#000000;fill-opacity:1;stroke:none;font-family:Sans"><flowRegion
         id="flowRegion5229"><rect
           id="rect5231"
           width="280"
           height="71.428574"
           x="1671.4286"
           y="1649.505" /></flowRegion><flowPara
         id="flowPara5233">springs</flowPara></flowRoot>    <path
       style="fill:none;stroke:#000000;stroke-width:1px;stroke-linecap:butt;stroke-linejoin:miter;stroke-opacity:1"
       d="m 1064.1593,-46.91517 440,634.2858"
       id="path5235"
       inkscape:connector-curvature="0"
       sodipodi:nodetypes="cc" />
    <path
       style="fill:none;stroke:#000000;stroke-width:1px;stroke-linecap:butt;stroke-linejoin:miter;stroke-opacity:1"
       d="m 1215.5879,15.94193 305.7143,540.0001"
       id="path5237"
       inkscape:connector-curvature="0"
       sodipodi:nodetypes="cc" />
    <flowRoot
       transform="translate(-238.49204,-2137.2051)"
       xml:space="preserve"
       id="flowRoot5239"
       style="font-size:40px;font-style:normal;font-weight:normal;line-height:125%;letter-spacing:0px;word-spacing:0px;fill:#000000;fill-opacity:1;stroke:none;font-family:Sans"><flowRegion
         id="flowRegion5241"><rect
           id="rect5243"
           width="265.71429"
           height="60"
           x="1777.1428"
           y="2703.7908" /></flowRegion><flowPara
         id="flowPara5245">bullets</flowPara></flowRoot>    <path
       style="fill:none;stroke:#000000;stroke-width:1px;stroke-linecap:butt;stroke-linejoin:miter;stroke-opacity:1"
       d="m 1358.445,61.65623 211.4286,357.1429"
       id="path5247"
       inkscape:connector-curvature="0"
       sodipodi:nodetypes="cc" />
    <path
       style="fill:none;stroke:#000000;stroke-width:1px;stroke-linecap:butt;stroke-linejoin:miter;stroke-opacity:1"
       d="M 1364.1593,-4.0580701 1747.0164,-158.34377"
       id="path5249"
       inkscape:connector-curvature="0"
       sodipodi:nodetypes="cc" />
    <path
       style="fill:none;stroke:#000000;stroke-width:1px;stroke-linecap:butt;stroke-linejoin:miter;stroke-opacity:1"
       d="M 361.30217,-61.20097 524.03009,142.18271"
       id="path5251"
       inkscape:connector-curvature="0"
       sodipodi:nodetypes="cc" />
    <path
       style="fill:none;stroke:#000000;stroke-width:1px;stroke-linecap:butt;stroke-linejoin:miter;stroke-opacity:1"
       d="M 772.73074,-81.20097 990.29948,-296.63519"
       id="path5253"
       inkscape:connector-curvature="0"
       sodipodi:nodetypes="cc" />
    <flowRoot
       transform="translate(-687.40326,-1852.4479)"
       xml:space="preserve"
       id="flowRoot5255"
       style="font-size:40px;font-style:normal;font-weight:normal;line-height:125%;letter-spacing:0px;word-spacing:0px;fill:#000000;fill-opacity:1;stroke:none;font-family:Sans"><flowRegion
         id="flowRegion5257"><rect
           id="rect5259"
           width="214.28572"
           height="48.57143"
           x="1634.2858"
           y="1500.9336" /></flowRegion><flowPara
         id="flowPara5261">piston</flowPara></flowRoot>    <flowRoot
       transform="translate(-124.58919,-2113.7545)"
       xml:space="preserve"
       id="flowRoot5271"
       style="font-size:40px;font-style:normal;font-weight:normal;line-height:125%;letter-spacing:0px;word-spacing:0px;fill:#000000;fill-opacity:1;stroke:none;font-family:Sans"><flowRegion
         id="flowRegion5273"><rect
           id="rect5275"
           width="245.71428"
           height="71.428574"
           x="1720"
           y="2543.7908" /></flowRegion><flowPara
         id="flowPara5277">trigger</flowPara></flowRoot>    <flowRoot
       transform="translate(-1253.5674,-2770.3709)"
       xml:space="preserve"
       id="flowRoot5279"
       style="font-size:40px;font-style:normal;font-weight:normal;line-height:125%;letter-spacing:0px;word-spacing:0px;fill:#000000;fill-opacity:1;stroke:none;font-family:Sans"><flowRegion
         id="flowRegion5281"><rect
           id="rect5283"
           width="240"
           height="60"
           x="1785.7142"
           y="2920.9336" /></flowRegion><flowPara
         id="flowPara5285">barrel</flowPara></flowRoot>    <flowRoot
       xml:space="preserve"
       id="flowRoot3100"
       style="font-size:40px;font-style:normal;font-weight:normal;line-height:125%;letter-spacing:0px;word-spacing:0px;fill:#000000;fill-opacity:1;stroke:none;font-family:Sans"
       transform="translate(-636.51591,-961.03816)"><flowRegion
         id="flowRegion3102"><rect
           id="rect3104"
           width="184.25461"
           height="56.951424"
           x="2361.8091"
           y="750.41876" /></flowRegion><flowPara
         id="flowPara3106">lever</flowPara></flowRoot>  </g>
</svg>
